<svg width="16" height="15" viewBox="0 0 16 15" fill="none" xmlns="http://www.w3.org/2000/svg">
<path d="M7.9333 10.4754C8.72074 10.4754 9.47594 10.1625 10.0327 9.60574C10.5896 9.04893 10.9024 8.29374 10.9024 7.5063C10.9024 6.71885 10.5896 5.96366 10.0327 5.40685C9.47594 4.85004 8.72074 4.53723 7.9333 4.53723C7.14585 4.53723 6.39066 4.85004 5.83385 5.40685C5.27704 5.96366 4.96423 6.71885 4.96423 7.5063C4.96423 8.29374 5.27704 9.04893 5.83385 9.60574C6.39066 10.1625 7.14585 10.4754 7.9333 10.4754Z" stroke="white" stroke-width="1.1134" stroke-linecap="round" stroke-linejoin="round"/>
<path d="M1.2529 10.4753V4.53714C1.2529 3.55283 1.64391 2.60884 2.33992 1.91283C3.03593 1.21682 3.97992 0.825806 4.96423 0.825806H10.9024C11.8867 0.825806 12.8307 1.21682 13.5267 1.91283C14.2227 2.60884 14.6137 3.55283 14.6137 4.53714V10.4753C14.6137 11.4596 14.2227 12.4036 13.5267 13.0996C12.8307 13.7956 11.8867 14.1866 10.9024 14.1866H4.96423C3.97992 14.1866 3.03593 13.7956 2.33992 13.0996C1.64391 12.4036 1.2529 11.4596 1.2529 10.4753Z" stroke="white" stroke-width="1.1134"/>
<path d="M12.0157 3.43295L12.0248 3.42297" stroke="white" stroke-width="1.1134" stroke-linecap="round" stroke-linejoin="round"/>
</svg>
